<svg width="506" height="648" viewBox="0 0 506 648" xmlns="http://www.w3.org/2000/svg"><title>accessible</title><path d="M494.556 293.574c-7.753-7.955-18.586-12.155-29.656-11.55l-133.98 7.46 73.732-83.976c10.504-11.962 13.505-27.908 9.444-42.157-2.143-9.762-8.056-18.646-17.14-24.322-.28-.2-176.247-102.423-176.247-102.423-14.37-8.347-32.477-6.508-44.877 4.552l-85.958 76.676c-15.837 14.126-17.224 38.416-3.097 54.254 14.127 15.836 38.418 17.227 54.254 3.096l65.168-58.13 53.874 31.284L164.98 256.64c-39.433 6.432-74.913 24.603-102.765 50.802l49.66 49.66c22.45-20.412 52.256-32.87 84.918-32.87 69.667 0 126.346 56.68 126.346 126.347 0 32.66-12.46 62.465-32.87 84.914l49.656 49.66c33.08-35.166 53.382-82.484 53.382-134.576 0-31.036-7.206-60.385-20.017-86.483l51.86-2.89-12.614 154.75c-1.725 21.153 14.027 39.696 35.18 41.423 1.06.086 2.116.127 3.163.127 19.806 0 36.62-15.22 38.257-35.306l16.193-198.685c.905-11.07-3.025-21.99-10.774-29.942zm-71.172-164.61c35.523 0 64.317-28.796 64.317-64.32C487.7 29.12 458.91.32 423.386.32c-35.527 0-64.323 28.8-64.323 64.323 0 35.525 28.796 64.322 64.324 64.322zm-226.59 447.962c-69.668 0-126.348-56.68-126.348-126.348 0-26.256 8.056-50.66 21.817-70.887l-50.196-50.193C15.912 362.873.277 404.89.277 450.577c0 108.536 87.982 196.518 196.517 196.518 45.69 0 87.703-15.636 121.08-41.792l-50.196-50.193c-20.226 13.757-44.63 21.816-70.884 21.816z" fill-rule="evenodd"/></svg>