<svg width="14" height="20" viewBox="0 0 14 20" xmlns="http://www.w3.org/2000/svg"><title>accessible</title><g fill="#000" fill-rule="evenodd"><circle cx="7" cy="2" r="2"/><path d="M14 11V9c-1.54.02-3.09-.75-4.07-1.83L8.64 5.74c-.17-.19-.38-.34-.61-.45-.01 0-.01-.01-.02-.01H8c-.35-.2-.75-.3-1.19-.26C5.76 5.11 5 6.04 5 7.09V13c0 1.1.9 2 2 2h5v5h2v-5.5c0-1.1-.9-2-2-2H9V9.05c1.29 1.07 3.25 1.94 5 1.95zm-6.17 5c-.41 1.16-1.52 2-2.83 2-1.66 0-3-1.34-3-3 0-1.31.84-2.41 2-2.83V10.1c-2.28.46-4 2.48-4 4.9 0 2.76 2.24 5 5 5 2.42 0 4.44-1.72 4.9-4H7.83z"/></g></svg>