<?xml version="1.0" encoding="UTF-8" standalone="no"?>
<svg width="14px" height="20px" viewBox="0 0 14 20" version="1.1" xmlns="http://www.w3.org/2000/svg" xmlns:xlink="http://www.w3.org/1999/xlink" xmlns:sketch="http://www.bohemiancoding.com/sketch/ns">
    <!-- Generator: Sketch 3.5.1 (25234) - http://www.bohemiancoding.com/sketch -->
    <title>Shape</title>
    <desc>Created with Sketch.</desc>
    <defs></defs>
    <g id="Wireframes" stroke="none" stroke-width="1" fill="none" fill-rule="evenodd" sketch:type="MSPage">
        <g id="Startpage-With-GPS" sketch:type="MSArtboardGroup" transform="translate(-298.000000, -530.000000)" fill="#BFBFBF">
            <g id="List" sketch:type="MSLayerGroup" transform="translate(0.000000, 382.000000)">
                <g id="Item" transform="translate(1.000000, 15.000000)" sketch:type="MSShapeGroup">
                    <g id="Distance" transform="translate(297.000000, 133.000000)">
                        <g id="ic_location_on_black_24px">
                            <g id="Group">
                                <path d="M7,0 C3.13,0 0,3.13 0,7 C0,12.25 7,20 7,20 C7,20 14,12.25 14,7 C14,3.13 10.87,0 7,0 L7,0 Z M7,9.5 C5.62,9.5 4.5,8.38 4.5,7 C4.5,5.62 5.62,4.5 7,4.5 C8.38,4.5 9.5,5.62 9.5,7 C9.5,8.38 8.38,9.5 7,9.5 L7,9.5 Z" id="Shape"></path>
                            </g>
                        </g>
                    </g>
                </g>
            </g>
        </g>
    </g>
</svg>