<svg xmlns="http://www.w3.org/2000/svg" width="24" height="24" viewBox="0 0 354.287 354.287"><path d="M88.924 305.208c5.01 21.515-8.383 43.03-29.903 48.03-21.52 5.003-43.035-8.38-48.036-29.903-5.005-21.52 8.386-43.03 29.91-48.038 21.522-5.002 43.02 8.392 48.03 29.91zm-16.656-114.98l-12.883 31.06c42.648 17.685 73.57 59.36 78.77 106.146l33.413-3.71c-6.527-58.787-45.51-111.192-99.3-133.495zM89.72 92.026l-14.42 30.37c80.232 38.116 137.62 116.73 149.762 205.17l33.302-4.575c-13.65-99.547-78.276-188.05-168.643-230.965zM109.647 0L95.223 30.373c119.08 56.552 201.73 173.317 215.694 304.72l33.434-3.56C329.157 188.572 239.225 61.537 109.647 0z" fill="#494746"/></svg>