<svg width="21" height="24" viewBox="0 0 21 24" xmlns="http://www.w3.org/2000/svg"><title>sign-language</title><g fill-rule="evenodd"><path d="M20.9 20.325l-1.5.125-2.15.225s-.75.6-1.1.75c-.35.15-.9.45-1.9.7-1.025.275-2.85.625-2.85.625l-5.575 1.125s-.95.15-1.15-.725c-.2-.875.925-1.175.925-1.175s3.825-.85 3.925-.875c.125-.05.375-.15.375-.375-.025-.2-.3-.2-.3-.2s-3.975.575-4.475.625c-.525.025-1.125.1-1.125.1s-1.05.15-1.2-.725c-.15-.9.8-1.075.8-1.075s.775-.15 1.1-.175c.35-.05 2.05-.275 2.05-.275l2.55-.35s.125-.025.2-.1c.075-.075.15-.15.125-.225-.025-.15-.375-.225-.375-.225l-5.2.3s-.85.075-1.075.075c-.225 0-.55-.025-.55-.025s-.95-.025-.875-.925c.075-.9 1.2-.95 1.2-.95s.3-.025.875-.05 3.725-.175 3.725-.175l1.5-.1s.575-.025.55-.3c-.025-.275-.525-.275-.525-.275H5.85L3.2 15.5s-.95-.075-.9-.975c.05-.9 1.1-.9 1.1-.9l.55-.025s6.575.075 6.725.025c.15-.025.425-.05.575-.35.15-.3-.175-.725-.175-.725L9.35 10.8s-.425-.5-.45-1.325c-.025-.85.7-1 .7-1s6.825 4.8 7.05 4.9c.2.075 1.625.325 1.875.3.225-.025 1.35-.1 1.35-.1s1.05-.025 1.05.075c-.025.1-.025 6.675-.025 6.675z"/><path d="M18.275 13.05H17.25l-2.225-1.475-4.675-3.3-.475-.3s-.375-.2-.775.05-.45.425-.45.425-.3.525-.325.85c-.025.325.075.775.125.9.05.1.175.425.35.675.15.275.525.65.525.65s1.05 1.05 1.125 1.15c.075.1.275.35.275.35H8.35l-1.5.075s-.325.025-.7-.05c-.375-.075-.6-.175-.6-.175l-4.85-2.1s-.625-.35-.4-1.05c.225-.7.9-.625.9-.625s.2 0 .4.075L4.625 10.3l.825.325s.425.175.55-.075c.125-.25-.4-.5-.4-.5L.55 7.6s-.725-.55-.325-1.225c.4-.675 1.075-.5 1.075-.5s.325.1.425.15c.1.05 2.375 1.225 2.725 1.35.35.125 1.95 1 1.95 1s.525.3.7.025c.175-.275-.45-.575-.45-.575l-5.575-3.25S.325 3.95.825 3.25s1.3-.275 1.3-.275L3.6 3.9l4.1 2.4s.4.2.55-.05c.15-.25-.325-.55-.325-.55L6.4 4.7 3.275 2.45s-.6-.625-.175-1.25S4.225.825 4.225.825s.175.05.3.125c.025.05.4.35.975.725 1.75 1.175 5.175 3.45 5.175 3.45s.35.1.6-.05c.25-.15.225-.6.225-.6s-.15-1.025-.3-1.5c-.125-.475-.125-1.3-.125-1.3S11.025 1.1 11.5.55s.95-.4.95-.4l.625 1.45 2.25 5.6s.5 1.4.725 1.575c.05.025.15.125.3.25.425.275 1.175.725 1.225.75.075.05.675.525.675.525v2.75h.025z"/></g></svg>